<?xml version="1.0" encoding="UTF-8"?>
<svg width="600px" height="600px" viewBox="0 0 600 600" version="1.1" xmlns="http://www.w3.org/2000/svg" xmlns:xlink="http://www.w3.org/1999/xlink">
    <title>LogoPerch Logo@1x</title>
    <g id="Logo" stroke="none" stroke-width="1" fill="none" fill-rule="evenodd">
        <rect fill="#1761D0" x="0" y="0" width="600" height="600"></rect>
        <line x1="659.910292" y1="343.089708" x2="-59.9102916" y2="343.089708" id="Line-13" stroke="#FFFFFF" stroke-width="2.33241964" stroke-linecap="square"></line>
        <g transform="translate(96.000000, 265.000000)" fill="#FFFFFF" font-family="KhmerMN-Bold, Khmer MN" font-size="72.0422616" font-weight="bold" id="Perch" letter-spacing="3.43058395">
            <text>
                <tspan x="107.657211" y="71">Perch</tspan>
            </text>
        </g>
        <g id="bird" transform="translate(181.000000, 240.000000)">
            <g id="less-of--that" transform="translate(34.000000, 48.000000) rotate(11.000000) translate(-34.000000, -48.000000) translate(7.929346, 4.144880)" fill="#1761D0" stroke="#FFFFFF" stroke-width="1.23350409">
                <path d="M28.2804083,1.43653102 C34.68784,2.90798227 38.9688162,4.07591233 41.1215124,4.94541598 C43.6479057,5.96586109 45.5094654,7.87601731 46.6403197,9.57204786 C47.8993621,10.4537195 48.7192505,11.0374031 49.2747331,11.4994834 C49.9709689,12.0786497 50.614588,12.7358646 51.2056656,13.4708727 C49.9714834,14.2148832 48.9720983,14.7382437 48.2057481,15.037172 C47.5539241,15.2914274 46.753871,15.5974894 45.8055938,15.9553707 C44.4030027,18.7227858 44.0865659,19.7306177 44.5645063,24.4677158 C44.9282161,28.07262 44.307485,30.4999658 43.6383334,32.5053083 C43.5855121,32.6898984 43.5388302,32.8529129 43.4902993,33.0211117 C42.2376881,37.3624192 38.8461054,42.3093511 37.3904897,44.1847835 C35.920271,46.0790306 33.149916,48.742074 30.3077519,51.4401567 L29.5654965,52.1443168 C26.7640069,54.8013327 23.9950882,57.4302644 22.3885377,59.3455482 C20.6135821,61.4615998 18.2997374,65.0871876 15.45164,70.2261444 L15.252,70.586 L16.7431527,64.5693322 L10.2949905,76.0128724 L12.4244526,68.689424 L5.09021681,81.9657301 C12.2173792,59.3855903 16.2307441,45.364438 17.137159,39.9003761 C17.4502396,37.9335003 17.8345598,36.1989652 18.306001,34.5383771 C18.9544001,31.4299099 20.0293062,29.3424601 21.1537946,27.2602139 C21.4002411,26.7832723 21.648971,26.3274786 21.9048191,25.8834814 C23.7403063,22.5503887 25.6473649,19.3090587 27.2740525,16.6336684 C27.8629007,15.665198 28.4113276,14.8347374 28.9004676,14.0938806 C30.4633154,11.7267738 31.4103086,10.2035748 31.3214171,8.18617297 C31.2585941,6.76039814 30.6229029,5.33149713 29.3718769,3.91560881 L29.3718769,3.91560881 L32.7807433,4.07704225 Z" id="Combined-Shape"></path>
                <path d="M20.0203086,18.1284277 C21.6605999,17.9004107 23.3236692,18.1435939 24.5200877,18.7651691 C25.6996388,19.3779812 26.7677802,20.5112604 27.5105359,22.000363 C28.2027184,23.3880744 28.6107713,25.0848297 28.5641636,26.9764443 C28.4614901,31.1435384 27.7342527,35.8990389 25.6707137,42.6493708 C24.4495623,46.6440502 23.0572122,51.7629437 21.4939571,58.0061343 L21.4939571,58.0061343 L20.2647262,51.7417825 L19.1124754,62.602132 L17.9287003,55.9179241 L17.1063476,66.8467311 C15.3652104,56.0967745 14.2918073,49.2654956 13.8862677,46.3528756 C13.8437911,46.0478051 13.8024341,45.7525372 13.7622377,45.4655561 C13.144075,41.0521987 12.8021019,38.6141565 12.8895506,32.5514433 C12.9797246,26.2997915 13.6301912,22.2578892 16.0493921,19.9395193 C17.1325114,18.9015438 18.5711042,18.3298817 20.0203086,18.1284277 Z" id="Oval" transform="translate(20.721875, 44.753298) rotate(29.000000) translate(-20.721875, -44.753298) "></path>
            </g>
            <g id="Group" transform="translate(27.159694, 20.695270)">
                <polygon id="Rectangle" fill="#1761D0" transform="translate(11.832164, 5.379173) rotate(42.000000) translate(-11.832164, -5.379173) " points="10.9994699 -1.10945659 12.6197366 -1.10381628 12.664859 11.8678019 11.0445924 11.8621616"></polygon>
                <path d="M10.5850476,5.2607491 C10.1064268,5.81651482 9.27806384,6.75926175 8.09995879,8.0889899 C6.33280123,10.0835821 2.53845413,14.9880932 1.38753582,16.521382 C0.00161518687,18.3677481 -0.346074951,18.9860114 0.344465405,18.3761717" id="Line-9" stroke="#1761D0" stroke-width="0.810982308" stroke-linecap="round"></path>
            </g>
            <path d="M24.4842824,53.3736785 C33.7187429,48.0888051 40.1973368,43.6012438 43.920064,39.9109947 C45.3982459,38.4457089 46.4170598,37.2876989 46.9765058,36.4369648 C46.6506204,37.4489111 45.9519491,38.5198934 44.8804918,39.6499119 C42.3911916,42.2752666 40.5607799,43.7798846 36.7785189,46.5758396 C34.448188,48.2984865 29.8578395,51.3842868 23.0074733,55.8332403 L24.4842824,53.3736785 Z" id="Path-2" stroke="#00EA21" stroke-width="0.6" fill="#00EA21"></path>
        </g>
    </g>
</svg>